<mxfile host="app.diagrams.net" agent="Mozilla/5.0 (Macintosh; Intel Mac OS X 10_15_7) AppleWebKit/537.36 (KHTML, like Gecko) Chrome/131.0.0.0 Safari/537.36" version="26.0.3">
  <diagram name="Page-1" id="sEhQNvrqv5ab7xYdQ990">
    <mxGraphModel dx="2304" dy="1272" grid="1" gridSize="10" guides="1" tooltips="1" connect="1" arrows="1" fold="1" page="1" pageScale="1" pageWidth="1169" pageHeight="1654" math="0" shadow="0">
      <root>
        <mxCell id="0" />
        <mxCell id="1" parent="0" />
        <mxCell id="BHgrdc59kmO8QDk_2yzC-1" value="" style="rounded=0;whiteSpace=wrap;html=1;" vertex="1" parent="1">
          <mxGeometry x="400" y="400" width="300" height="160" as="geometry" />
        </mxCell>
        <mxCell id="BHgrdc59kmO8QDk_2yzC-2" value="&lt;font style=&quot;font-size: 15px;&quot;&gt;ZSet&lt;/font&gt;" style="text;html=1;align=center;verticalAlign=middle;resizable=0;points=[];autosize=1;strokeColor=none;fillColor=none;" vertex="1" parent="1">
          <mxGeometry x="520" y="530" width="60" height="30" as="geometry" />
        </mxCell>
        <mxCell id="BHgrdc59kmO8QDk_2yzC-4" value="hmap" style="whiteSpace=wrap;html=1;aspect=fixed;" vertex="1" parent="1">
          <mxGeometry x="430" y="430" width="80" height="80" as="geometry" />
        </mxCell>
        <mxCell id="BHgrdc59kmO8QDk_2yzC-5" value="tree" style="rhombus;whiteSpace=wrap;html=1;" vertex="1" parent="1">
          <mxGeometry x="560" y="430" width="80" height="80" as="geometry" />
        </mxCell>
        <mxCell id="BHgrdc59kmO8QDk_2yzC-6" value="" style="endArrow=classic;html=1;rounded=0;exitX=0.5;exitY=0;exitDx=0;exitDy=0;" edge="1" parent="1" source="BHgrdc59kmO8QDk_2yzC-5">
          <mxGeometry width="50" height="50" relative="1" as="geometry">
            <mxPoint x="630" y="720" as="sourcePoint" />
            <mxPoint x="600" y="360" as="targetPoint" />
          </mxGeometry>
        </mxCell>
        <mxCell id="BHgrdc59kmO8QDk_2yzC-8" value="AVLNode" style="ellipse;whiteSpace=wrap;html=1;" vertex="1" parent="1">
          <mxGeometry x="540" y="280" width="120" height="80" as="geometry" />
        </mxCell>
        <mxCell id="BHgrdc59kmO8QDk_2yzC-9" value="" style="rounded=0;whiteSpace=wrap;html=1;" vertex="1" parent="1">
          <mxGeometry x="450" y="772" width="200" height="110" as="geometry" />
        </mxCell>
        <mxCell id="BHgrdc59kmO8QDk_2yzC-10" value="&lt;font style=&quot;font-size: 14px;&quot;&gt;ZNode&lt;/font&gt;" style="text;html=1;align=center;verticalAlign=middle;whiteSpace=wrap;rounded=0;" vertex="1" parent="1">
          <mxGeometry x="520" y="852" width="60" height="30" as="geometry" />
        </mxCell>
        <mxCell id="BHgrdc59kmO8QDk_2yzC-11" value="AVLNode" style="ellipse;whiteSpace=wrap;html=1;" vertex="1" parent="1">
          <mxGeometry x="460" y="807" width="70" height="40" as="geometry" />
        </mxCell>
        <mxCell id="BHgrdc59kmO8QDk_2yzC-12" value="HNode" style="ellipse;whiteSpace=wrap;html=1;" vertex="1" parent="1">
          <mxGeometry x="540" y="807" width="70" height="40" as="geometry" />
        </mxCell>
        <mxCell id="BHgrdc59kmO8QDk_2yzC-13" value="score" style="text;html=1;align=center;verticalAlign=middle;resizable=0;points=[];autosize=1;strokeColor=none;fillColor=none;" vertex="1" parent="1">
          <mxGeometry x="470" y="777" width="50" height="30" as="geometry" />
        </mxCell>
        <mxCell id="BHgrdc59kmO8QDk_2yzC-14" value="len" style="text;html=1;align=center;verticalAlign=middle;resizable=0;points=[];autosize=1;strokeColor=none;fillColor=none;" vertex="1" parent="1">
          <mxGeometry x="520" y="777" width="40" height="30" as="geometry" />
        </mxCell>
        <mxCell id="BHgrdc59kmO8QDk_2yzC-15" value="name" style="text;html=1;align=center;verticalAlign=middle;resizable=0;points=[];autosize=1;strokeColor=none;fillColor=none;" vertex="1" parent="1">
          <mxGeometry x="585" y="777" width="50" height="30" as="geometry" />
        </mxCell>
        <mxCell id="BHgrdc59kmO8QDk_2yzC-16" value="&lt;font style=&quot;font-size: 14px;&quot;&gt;想知道一个tupe是否已经存在于 ZSet：在它的 hmap里面运用hashmap的查找方法去搜索name.&lt;br&gt;只去比较 string 是否一样！&lt;/font&gt;&lt;div&gt;&lt;font style=&quot;font-size: 14px;&quot;&gt;&lt;br&gt;&lt;/font&gt;&lt;/div&gt;" style="text;html=1;align=center;verticalAlign=middle;resizable=0;points=[];autosize=1;strokeColor=none;fillColor=none;" vertex="1" parent="1">
          <mxGeometry x="80" y="155" width="610" height="60" as="geometry" />
        </mxCell>
      </root>
    </mxGraphModel>
  </diagram>
</mxfile>
